<svg width="48" height="49" viewBox="0 0 48 49" fill="none" xmlns="http://www.w3.org/2000/svg">
<g clip-path="url(#clip0_3372_27039)">
<path d="M37.4085 36.5943C38.6465 37.8323 38.6465 39.8383 37.4085 41.0743C36.1705 42.3123 34.1645 42.3123 32.9285 41.0743C31.6905 39.8363 31.6905 37.8303 32.9285 36.5943C34.1665 35.3563 36.1725 35.3563 37.4085 36.5943" stroke="#0093A2" stroke-width="2" stroke-linecap="round" stroke-linejoin="round"/>
<path d="M15.4078 36.5935C16.6458 37.8315 16.6458 39.8375 15.4078 41.0735C14.1698 42.3115 12.1638 42.3115 10.9278 41.0735C9.69175 39.8355 9.68975 37.8295 10.9278 36.5935C12.1658 35.3575 14.1698 35.3555 15.4078 36.5935" stroke="#0093A2" stroke-width="2" stroke-linecap="round" stroke-linejoin="round"/>
<path d="M20 8.00171H28C29.104 8.00171 30 8.89771 30 10.0017V30.0017H4" stroke="#0093A2" stroke-width="2" stroke-linecap="round" stroke-linejoin="round"/>
<path d="M10 38.8337H6C4.896 38.8337 4 37.9377 4 36.8337V26.0017" stroke="#0093A2" stroke-width="2" stroke-linecap="round" stroke-linejoin="round"/>
<path d="M30 14.0017H38.646C39.464 14.0017 40.2 14.4997 40.502 15.2597L43.714 23.2877C43.902 23.7597 44 24.2637 44 24.7717V36.6677C44 37.7717 43.104 38.6677 42 38.6677H38.338" stroke="#0093A2" stroke-width="2" stroke-linecap="round" stroke-linejoin="round"/>
<path d="M31.9998 38.8416H16.3398" stroke="#0093A2" stroke-width="2" stroke-linecap="round" stroke-linejoin="round"/>
<path d="M44 28.0017H36V20.0017H42.4" stroke="#0093A2" stroke-width="2" stroke-linecap="round" stroke-linejoin="round"/>
<path d="M4 8.00171H14" stroke="#0093A2" stroke-width="2" stroke-linecap="round" stroke-linejoin="round"/>
<path d="M4 14.0017H10" stroke="#0093A2" stroke-width="2" stroke-linecap="round" stroke-linejoin="round"/>
<path d="M6 20.0017H4" stroke="#0093A2" stroke-width="2" stroke-linecap="round" stroke-linejoin="round"/>
</g>
<defs>
<clipPath id="clip0_3372_27039">
<rect width="48" height="48" fill="white" transform="translate(0 0.00170898)"/>
</clipPath>
</defs>
</svg>
