<svg width="48" height="49" viewBox="0 0 48 49" fill="none" xmlns="http://www.w3.org/2000/svg">
<g clip-path="url(#clip0_3372_27517)">
<path d="M11.273 27.9033L4.5 34.8367L9.91667 38.0867L13.1667 43.5033L21.6145 34.6308" stroke="#0093A2" stroke-width="2" stroke-linecap="round" stroke-linejoin="round"/>
<path d="M26.3848 34.6308L34.8326 43.5033L38.0826 38.0867L43.4993 34.8367L36.7263 27.9033" stroke="#0093A2" stroke-width="2" stroke-linecap="round" stroke-linejoin="round"/>
<path d="M34.7251 8.94392C40.648 14.8669 40.648 24.4699 34.7251 30.3928C28.8021 36.3158 19.1992 36.3158 13.2762 30.3928C7.35325 24.4699 7.35325 14.8669 13.2762 8.94392C19.1992 3.02097 28.8021 3.02097 34.7251 8.94392" stroke="#0093A2" stroke-width="2" stroke-linecap="round" stroke-linejoin="round"/>
<path fill-rule="evenodd" clip-rule="evenodd" d="M23.9995 25.2656L27.893 27.311C28.6513 27.7096 29.5375 27.0661 29.3923 26.2211L28.6492 21.8856L31.7995 18.8176C32.4127 18.2196 32.0747 17.1775 31.2275 17.054L26.8747 16.4213L24.929 12.4758C24.5498 11.7066 23.4557 11.7066 23.0765 12.4758L21.1308 16.4213L16.7758 17.0561C15.9287 17.1796 15.5907 18.2218 16.2038 18.8198L19.3542 21.8878L18.611 26.2233C18.4658 27.0683 19.352 27.7118 20.1103 27.3131L24.0038 25.2678H23.9995V25.2656Z" stroke="#0093A2" stroke-width="2" stroke-linecap="round" stroke-linejoin="round"/>
</g>
<defs>
<clipPath id="clip0_3372_27517">
<rect width="48" height="48" fill="white" transform="translate(0 0.00170898)"/>
</clipPath>
</defs>
</svg>
